# xmcd
#
# Track frame offsets: 
#        150
#        12488
#        24084
#        37685
#        54000
#        66714
#        80149
#        92764
#        106395
#        120068
#        133555
#        147234
#        160660
#        174239
#        188727
#
# Disc length: 2687 seconds
#
# Revision: 5
# Processed by: cddbd v1.5.2PL0 Copyright (c) Steve Scherf et al.
# Submitted via: ExactAudioCopy v1.0b4
#
DISCID=b20a7d0f
DTITLE=Various Artist - Blues in History III CD1
DYEAR=1900
DGENRE=Blues
TTITLE0=Little Brother Montgomery - Little Brother Montgomery - Chines
TTITLE0=e Man Blues
TTITLE1=Little Brother Montgomery - Little Brother Montgomery - Cresce
TTITLE1=nt City Blues
TTITLE2=Tommy Ladnier - Tommy Ladnier - Weary Blues
TTITLE3=Tommy Ladnier - Tommy Ladnier - Really The Blues
TTITLE4=Jelly Roll Morton - Jelly Roll Morton - Mamie's Blues
TTITLE5=Jelly Roll Morton - Jelly Roll Morton - Winin' Boy
TTITLE6=Jelly Roll Morton - Jelly Roll Morton - New Orleans Joys
TTITLE7=Muggsy Spanier and his Ragtime Band - Muggsy Spanier and his R
TTITLE7=agtime Band - Beale Street Blues
TTITLE8=Benny Goodman - Benny Goodman -  Livery Stable Blues
TTITLE9=Ann Cook - Ann Cook - Mama Cookie
TTITLE10=Ann Cook - Ann Cook - He's The Sweetest Black Man In Town
TTITLE11=Kid Ory and his Orchestra - Kid Ory and his Orchestra - Fifty
TTITLE11=Fifty Blues
TTITLE12=Louis Armstrong - Louis Armstrong - I'm Not Rough
TTITLE13=King Oliver - King Oliver - Snag it
TTITLE14=Lester Young with Count Basie - Lester Young with Count Basie
TTITLE14=Jeeps Blues
EXTD=
EXTT0=
EXTT1=
EXTT2=
EXTT3=
EXTT4=
EXTT5=
EXTT6=
EXTT7=
EXTT8=
EXTT9=
EXTT10=
EXTT11=
EXTT12=
EXTT13=
EXTT14=
PLAYORDER=
